# Blender 4.4.0
# www.blender.org
mtllib april_36h11-42.mtl
o Cube.001
v 0.100000 -0.100000 0.010000
v 0.100000 -0.100000 0.000000
v -0.100000 -0.100000 0.010000
v -0.100000 -0.100000 0.000000
v 0.100000 0.100000 0.010000
v 0.100000 0.100000 0.000000
v -0.100000 0.100000 0.010000
v -0.100000 0.100000 0.000000
v 0.100000 -0.100000 0.010000
v 0.120000 -0.120000 0.010000
v 0.120000 -0.120000 0.000000
v 0.100000 -0.100000 0.000000
v -0.120000 -0.120000 0.010000
v -0.100000 -0.100000 0.010000
v -0.120000 -0.120000 0.000000
v -0.100000 -0.100000 0.000000
v 0.120000 0.120000 0.010000
v 0.100000 0.100000 0.010000
v 0.120000 0.120000 0.000000
v 0.100000 0.100000 0.000000
v -0.120000 0.120000 0.010000
v -0.100000 0.100000 0.010000
v -0.120000 0.120000 0.000000
v -0.100000 0.100000 0.000000
vn -0.0000 -0.0000 1.0000
vn -1.0000 -0.0000 -0.0000
vn -0.0000 1.0000 -0.0000
vn -0.0000 -0.0000 -1.0000
vn -0.0000 -1.0000 -0.0000
vn 1.0000 -0.0000 -0.0000
vt 0.227273 0.545455
vt 0.227273 0.772727
vt 0.000000 0.772727
vt 0.000000 0.545455
vt 0.454545 0.772727
vt 0.227273 0.772727
vt 0.227273 0.545455
vt 0.454545 0.545455
vt 0.681818 0.772727
vt 0.454545 0.772727
vt 0.681818 0.545455
vt 0.954545 0.000000
vt 0.954545 0.227273
vt 0.727273 0.227273
vt 0.727273 0.000000
vt 0.954545 0.454545
vt 0.727273 0.454545
vt 0.727273 0.227273
vt 0.954545 0.227273
vt 0.954545 0.681818
vt 0.727273 0.681818
vt 0.727273 0.454545
vt 0.954545 0.454545
vt 0.250000 0.022727
vt 0.272727 0.000000
vt 0.272727 0.272727
vt 0.000000 0.272727
vt 0.000000 0.000000
vt 0.022727 0.022727
vt 0.022727 0.250000
vt 0.250000 0.250000
vt 0.500000 0.272727
vt 0.272727 0.272727
vt 0.272727 0.000000
vt 0.500000 0.000000
vt 0.500000 0.545455
vt 0.272727 0.545455
vt 0.272727 0.272727
vt 0.500000 0.272727
vt 0.272727 0.272727
vt 0.272727 0.545455
vt -0.000000 0.545455
vt 0.000000 0.272727
vt 0.022727 0.295455
vt 0.022727 0.522727
vt 0.250000 0.522727
vt 0.250000 0.295455
vt 0.727273 0.272727
vt 0.500000 0.272727
vt 0.500000 0.000000
vt 0.727273 0.000000
vt 0.727273 0.545455
vt 0.500000 0.545455
vt 0.500000 0.272727
vt 0.727273 0.272727
vt 0.000000 1.000000
vt 0.000000 0.772727
vt 0.227273 0.772727
vt 0.227273 1.000000
vt 0.454545 0.772727
vt 0.454545 1.000000
vt 0.227273 1.000000
vt 0.227273 0.772727
vt 0.454545 1.000000
vt 0.681818 0.772727
vt 0.681818 1.000000
vt 0.909091 0.772727
vt 0.909091 1.000000
vt 0.681818 1.000000
vt 0.681818 0.772727
s 0
usemtl Material.003
f 1/1/1 5/2/1 7/3/1 3/4/1
f 4/5/2 3/6/2 7/7/2 8/8/2
f 8/9/3 7/10/3 5/8/3 6/11/3
f 6/12/4 2/13/4 4/14/4 8/15/4
f 2/16/5 1/17/5 3/18/5 4/19/5
f 6/20/6 5/21/6 1/22/6 2/23/6
f 9/24/1 10/25/1 17/26/1 21/27/1 13/28/1 14/29/1 22/30/1 18/31/1
f 9/24/1 14/29/1 13/28/1 10/25/1
f 15/32/2 13/33/2 21/34/2 23/35/2
f 23/36/3 21/37/3 17/38/3 19/39/3
f 19/40/4 11/41/4 15/42/4 23/43/4 24/44/4 16/45/4 12/46/4 20/47/4
f 19/40/4 20/47/4 24/44/4 23/43/4
f 11/48/5 10/49/5 13/50/5 15/51/5
f 19/52/6 17/53/6 10/54/6 11/55/6
f 22/56/6 14/57/6 16/58/6 24/59/6
f 24/60/5 20/61/5 18/62/5 22/63/5
f 14/64/3 9/5/3 12/65/3 16/66/3
f 20/67/2 12/68/2 9/69/2 18/70/2
