# Blender 4.4.0
# www.blender.org
o Cube.002
v -0.127955 -0.094697 0.050000
v -0.126249 -0.092803 0.050000
v -0.108750 -0.100000 0.050000
v -0.107300 -0.098000 0.050000
v -0.150000 -0.072500 0.050000
v -0.148000 -0.071050 0.050000
v -0.142045 -0.085303 0.050000
v -0.140151 -0.083597 0.050000
v -0.142045 0.085303 0.050000
v -0.140151 0.083597 0.050000
v -0.148000 0.071050 0.050000
v -0.150000 0.072500 0.050000
v -0.108750 0.100000 0.050000
v -0.107300 0.098000 0.050000
v -0.126249 0.092803 0.050000
v -0.127955 0.094697 0.050000
v 0.127955 0.094697 0.050000
v 0.126249 0.092803 0.050000
v 0.107300 0.098000 0.050000
v 0.108750 0.100000 0.050000
v 0.148000 0.071050 0.050000
v 0.150000 0.072500 0.050000
v 0.140151 0.083597 0.050000
v 0.142045 0.085303 0.050000
v 0.140151 -0.083597 0.050000
v 0.142045 -0.085303 0.050000
v 0.148000 -0.071050 0.050000
v 0.150000 -0.072500 0.050000
v 0.107300 -0.098000 0.050000
v 0.108750 -0.100000 0.050000
v 0.126249 -0.092803 0.050000
v 0.127955 -0.094697 0.050000
v -0.147768 0.071421 0.050000
v 0.147768 -0.071421 0.050000
v -0.107004 -0.097000 -0.046000
v -0.107300 -0.098000 -0.045500
v -0.125403 -0.091953 -0.046000
v -0.126249 -0.092803 -0.045500
v -0.138882 -0.083028 -0.046000
v -0.140151 -0.083597 -0.045500
v -0.146500 -0.070850 -0.046000
v -0.148000 -0.071050 -0.045500
v -0.146500 0.070850 -0.046000
v -0.148000 0.071050 -0.045500
v -0.138882 0.083028 -0.046000
v -0.140151 0.083597 -0.045500
v -0.125403 0.091953 -0.046000
v -0.126249 0.092803 -0.045500
v -0.107004 0.097000 -0.046000
v -0.107300 0.098000 -0.045500
v 0.107004 0.097000 -0.046000
v 0.107300 0.098000 -0.045500
v 0.125403 0.091953 -0.046000
v 0.126249 0.092803 -0.045500
v 0.138882 0.083028 -0.046000
v 0.140151 0.083597 -0.045500
v 0.146500 0.070850 -0.046000
v 0.148000 0.071050 -0.045500
v 0.146500 -0.070850 -0.046000
v 0.148000 -0.071050 -0.045500
v 0.140151 -0.083597 -0.045500
v 0.138882 -0.083028 -0.046000
v 0.126249 -0.092803 -0.045500
v 0.125403 -0.091953 -0.046000
v 0.107300 -0.098000 -0.045500
v 0.107004 -0.097000 -0.046000
v -0.108422 -0.098900 -0.050000
v -0.108750 -0.100000 -0.049450
v -0.127020 -0.093764 -0.050000
v -0.127955 -0.094697 -0.049450
v -0.140646 -0.084680 -0.050000
v -0.142045 -0.085303 -0.049450
v -0.148350 -0.072281 -0.050000
v -0.150000 -0.072500 -0.049450
v -0.148350 0.072281 -0.050000
v -0.150000 0.072500 -0.049450
v -0.140646 0.084680 -0.050000
v -0.142045 0.085303 -0.049450
v -0.127020 0.093764 -0.050000
v -0.127955 0.094697 -0.049450
v -0.108422 0.098900 -0.050000
v -0.108750 0.100000 -0.049450
v 0.108422 0.098900 -0.050000
v 0.108750 0.100000 -0.049450
v 0.127020 0.093764 -0.050000
v 0.127955 0.094697 -0.049450
v 0.140646 0.084680 -0.050000
v 0.142045 0.085303 -0.049450
v 0.148350 0.072281 -0.050000
v 0.150000 0.072500 -0.049450
v 0.148350 -0.072281 -0.050000
v 0.150000 -0.072500 -0.049450
v 0.142045 -0.085303 -0.049450
v 0.140646 -0.084680 -0.050000
v 0.127020 -0.093764 -0.050000
v 0.127955 -0.094697 -0.049450
v 0.108750 -0.100000 -0.049450
v 0.108422 -0.098900 -0.050000
vn -0.0000 -1.0000 -0.0000
vn -1.0000 -0.0000 -0.0000
vn -0.8494 -0.5277 -0.0000
vn -0.8494 0.5277 -0.0000
vn -0.5547 0.8321 -0.0000
vn -0.0000 1.0000 -0.0000
vn -0.2662 0.9639 -0.0000
vn 0.2662 0.9639 -0.0000
vn 0.5547 0.8321 -0.0000
vn -0.0000 -0.0000 1.0000
vn 1.0000 -0.0000 -0.0000
vn 0.8494 0.5277 -0.0000
vn 0.8494 -0.5277 -0.0000
vn -0.2662 -0.9639 -0.0000
vn 0.5547 -0.8321 -0.0000
vn -0.5547 -0.8321 -0.0000
vn 0.2662 -0.9639 -0.0000
vn 0.8478 0.5303 -0.0000
vn 0.8478 -0.5303 -0.0000
vn 0.5521 -0.8338 -0.0000
vn 0.2645 -0.9644 -0.0000
vn -0.2645 -0.9644 -0.0000
vn -0.5521 -0.8338 -0.0000
vn -0.8478 -0.5303 -0.0000
vn -0.8478 0.5303 -0.0000
vn 0.5521 0.8338 -0.0000
vn -0.5521 0.8338 -0.0000
vn 0.2645 0.9644 -0.0000
vn -0.2645 0.9644 -0.0000
vn 0.1144 0.4169 0.9017
vn 0.2892 0.1809 0.9400
vn 0.2162 0.3264 0.9202
vn 0.3162 -0.0000 0.9487
vn 0.2892 -0.1809 0.9400
vn 0.1144 -0.4169 0.9017
vn 0.2162 -0.3264 0.9202
vn -0.0000 -0.4472 0.8944
vn -0.1144 -0.4169 0.9017
vn -0.2892 -0.1809 0.9400
vn -0.2162 -0.3264 0.9202
vn -0.3162 -0.0000 0.9487
vn -0.0000 0.4472 0.8944
vn -0.1144 0.4169 0.9017
vn -0.2162 0.3264 0.9202
vn -0.2892 0.1809 0.9400
vn -0.1150 -0.4166 -0.9018
vn -0.2895 -0.1799 -0.9401
vn -0.2169 -0.3254 -0.9204
vn -0.3162 -0.0000 -0.9487
vn -0.2895 0.1799 -0.9401
vn -0.1150 0.4166 -0.9018
vn -0.2169 0.3254 -0.9204
vn -0.0000 0.4472 -0.8944
vn 0.1150 0.4166 -0.9018
vn 0.2895 0.1799 -0.9401
vn 0.2169 0.3254 -0.9204
vn 0.3162 -0.0000 -0.9487
vn 0.1150 -0.4166 -0.9018
vn -0.0000 -0.4472 -0.8944
vn 0.2895 -0.1799 -0.9401
vn 0.2169 -0.3254 -0.9204
vn -0.0000 -0.0000 -1.0000
vt 0.376375 0.784375
vt 0.625000 0.784375
vt 0.625000 0.965625
vt 0.376375 0.965625
vt 0.376375 0.034375
vt 0.625000 0.034375
vt 0.625000 0.215625
vt 0.376375 0.215625
vt 0.376375 0.034375
vt 0.376375 0.018371
vt 0.625000 0.018371
vt 0.376375 0.215625
vt 0.625000 0.238258
vt 0.376375 0.238258
vt 0.625000 0.261742
vt 0.376375 0.261742
vt 0.376375 0.238258
vt 0.376375 0.284375
vt 0.625000 0.284375
vt 0.625000 0.465625
vt 0.376375 0.465625
vt 0.376375 0.284375
vt 0.376375 0.261742
vt 0.376375 0.465625
vt 0.625000 0.488258
vt 0.376375 0.488258
vt 0.625000 0.511742
vt 0.376375 0.511742
vt 0.376375 0.488258
vt 0.626667 0.713813
vt 0.626860 0.714276
vt 0.625000 0.715625
vt 0.625000 0.534375
vt 0.631629 0.518371
vt 0.643371 0.506629
vt 0.659375 0.500000
vt 0.840625 0.500000
vt 0.856629 0.506629
vt 0.868371 0.518371
vt 0.875000 0.534375
vt 0.873140 0.535724
vt 0.866793 0.520503
vt 0.855207 0.508997
vt 0.839417 0.502500
vt 0.660583 0.502500
vt 0.644793 0.508997
vt 0.633208 0.520503
vt 0.626667 0.536187
vt 0.873334 0.536188
vt 0.875000 0.715625
vt 0.868371 0.731629
vt 0.856629 0.743371
vt 0.840625 0.750000
vt 0.659375 0.750000
vt 0.643371 0.743371
vt 0.631629 0.731629
vt 0.633207 0.729497
vt 0.644793 0.741003
vt 0.660583 0.747500
vt 0.839417 0.747500
vt 0.855208 0.741003
vt 0.866793 0.729496
vt 0.873333 0.713812
vt 0.376375 0.534375
vt 0.376375 0.715625
vt 0.376375 0.534375
vt 0.376375 0.511742
vt 0.376375 0.715625
vt 0.625000 0.738258
vt 0.376375 0.738258
vt 0.376375 0.000000
vt 0.625000 0.000000
vt 0.625000 0.006629
vt 0.376375 0.006629
vt 0.625000 0.761742
vt 0.376375 0.761742
vt 0.376375 0.738258
vt 0.376375 0.006629
vt 0.376375 0.018371
vt 0.376375 0.784375
vt 0.376375 0.761742
vt 0.126267 0.715370
vt 0.132701 0.730903
vt 0.144085 0.742287
vt 0.159625 0.748725
vt 0.340375 0.748725
vt 0.355915 0.742288
vt 0.367299 0.730903
vt 0.373733 0.715370
vt 0.373733 0.534630
vt 0.367299 0.519096
vt 0.355915 0.507712
vt 0.340375 0.501276
vt 0.159625 0.501275
vt 0.144085 0.507712
vt 0.132701 0.519097
vt 0.126267 0.534630
vt 0.376302 0.034375
vt 0.376302 0.215625
vt 0.376302 0.018371
vt 0.376302 0.034375
vt 0.376302 0.215625
vt 0.376302 0.238258
vt 0.625000 0.216294
vt 0.376302 0.238258
vt 0.376302 0.261742
vt 0.376302 0.284375
vt 0.376302 0.465625
vt 0.376302 0.261742
vt 0.376302 0.284375
vt 0.376302 0.465625
vt 0.376302 0.488258
vt 0.376302 0.488258
vt 0.376302 0.511742
vt 0.376302 0.534375
vt 0.376302 0.715625
vt 0.625000 0.715625
vt 0.376302 0.511742
vt 0.376302 0.534375
vt 0.625000 0.716295
vt 0.376302 0.715625
vt 0.376302 0.738258
vt 0.376302 0.006629
vt 0.376302 0.018371
vt 0.376302 0.738258
vt 0.376302 0.761742
vt 0.376302 0.000000
vt 0.376302 0.006629
vt 0.376302 0.761742
vt 0.376302 0.784375
vt 0.143371 0.743371
vt 0.159375 0.750000
vt 0.125000 0.715625
vt 0.131629 0.731629
vt 0.125000 0.534375
vt 0.131629 0.518371
vt 0.159375 0.500000
vt 0.143371 0.506629
vt 0.340625 0.500000
vt 0.356629 0.506629
vt 0.375000 0.534375
vt 0.368371 0.518371
vt 0.340625 0.750000
vt 0.356629 0.743371
vt 0.368371 0.731629
vt 0.375000 0.715625
vt 0.376302 0.784375
vt 0.376302 0.965625
vt 0.144150 0.742205
vt 0.159648 0.748625
vt 0.126375 0.715352
vt 0.132795 0.730850
vt 0.126375 0.534648
vt 0.132795 0.519150
vt 0.159649 0.501375
vt 0.144150 0.507795
vt 0.340351 0.501375
vt 0.355850 0.507795
vt 0.373625 0.534648
vt 0.367205 0.519150
vt 0.373625 0.715351
vt 0.340351 0.748625
vt 0.355850 0.742205
vt 0.367205 0.730850
s 0
f 97/1/1 30/2/1 3/3/1 68/4/1
f 74/5/2 5/6/2 12/7/2 76/8/2
f 5/6/3 74/9/3 72/10/3 7/11/3
f 76/12/4 12/7/4 9/13/4 78/14/4
f 16/15/5 80/16/5 78/17/5 9/13/5
f 82/18/6 13/19/6 20/20/6 84/21/6
f 13/19/7 82/22/7 80/23/7 16/15/7
f 84/24/8 20/20/8 17/25/8 86/26/8
f 24/27/9 88/28/9 86/29/9 17/25/9
f 27/30/10 34/31/10 28/32/10 22/33/10 24/34/10 17/35/10 20/36/10 13/37/10 16/38/10 9/39/10 12/40/10 33/41/10 10/42/10 15/43/10 14/44/10 19/45/10 18/46/10 23/47/10 21/48/10
f 11/49/10 33/41/10 12/40/10 5/50/10 7/51/10 1/52/10 3/53/10 30/54/10 32/55/10 26/56/10 28/32/10 34/31/10 25/57/10 31/58/10 29/59/10 4/60/10 2/61/10 8/62/10 6/63/10
f 90/64/11 22/33/11 28/32/11 92/65/11
f 22/33/12 90/66/12 88/67/12 24/27/12
f 92/68/13 28/32/13 26/69/13 93/70/13
f 68/71/14 3/72/14 1/73/14 70/74/14
f 32/75/15 96/76/15 93/77/15 26/69/15
f 70/78/16 1/73/16 7/11/16 72/79/16
f 30/2/17 97/80/17 96/81/17 32/75/17
f 41/82/10 39/83/10 37/84/10 35/85/10 66/86/10 64/87/10 62/88/10 59/89/10 57/90/10 55/91/10 53/92/10 51/93/10 49/94/10 47/95/10 45/96/10 43/97/10
f 6/6/11 42/98/11 44/99/11 11/7/11
f 8/11/18 40/100/18 42/101/18 6/6/18
f 11/7/19 44/102/19 46/103/19 10/13/19 33/104/19
f 10/13/20 46/105/20 48/106/20 15/15/20
f 14/19/1 50/107/1 52/108/1 19/20/1
f 15/15/21 48/109/21 50/110/21 14/19/21
f 19/20/22 52/111/22 54/112/22 18/25/22
f 18/25/23 54/113/23 56/114/23 23/27/23
f 21/33/2 58/115/2 60/116/2 27/117/2
f 56/118/24 58/119/24 21/33/24 23/27/24
f 34/120/25 27/117/25 60/121/25 61/122/25 25/69/25
f 38/123/26 40/124/26 8/11/26 2/73/26
f 61/125/27 63/126/27 31/75/27 25/69/27
f 4/72/28 36/127/28 38/128/28 2/73/28
f 63/129/29 65/130/29 29/2/29 31/75/29
f 35/85/30 37/84/30 38/131/30 36/132/30
f 39/83/31 41/82/31 42/133/31 40/134/31
f 37/84/32 39/83/32 40/134/32 38/131/32
f 41/82/33 43/97/33 44/135/33 42/133/33
f 43/97/34 45/96/34 46/136/34 44/135/34
f 47/95/35 49/94/35 50/137/35 48/138/35
f 45/96/36 47/95/36 48/138/36 46/136/36
f 49/94/37 51/93/37 52/139/37 50/137/37
f 51/93/38 53/92/38 54/140/38 52/139/38
f 55/91/39 57/90/39 58/141/39 56/142/39
f 53/92/40 55/91/40 56/142/40 54/140/40
f 57/90/41 59/89/41 60/116/41 58/115/41
f 36/132/42 65/143/42 66/86/42 35/85/42
f 64/87/43 66/86/43 65/143/43 63/144/43
f 62/88/44 64/87/44 63/144/44 61/145/44
f 59/89/45 62/88/45 61/145/45 60/146/45
f 29/2/6 65/147/6 36/148/6 4/3/6
f 68/132/46 70/131/46 69/149/46 67/150/46
f 72/134/47 74/133/47 73/151/47 71/152/47
f 70/131/48 72/134/48 71/152/48 69/149/48
f 74/133/49 76/135/49 75/153/49 73/151/49
f 76/135/50 78/136/50 77/154/50 75/153/50
f 80/138/51 82/137/51 81/155/51 79/156/51
f 78/136/52 80/138/52 79/156/52 77/154/52
f 82/137/53 84/139/53 83/157/53 81/155/53
f 84/139/54 86/140/54 85/158/54 83/157/54
f 88/142/55 90/141/55 89/159/55 87/160/55
f 86/140/56 88/142/56 87/160/56 85/158/56
f 90/64/57 92/65/57 91/161/57 89/159/57
f 96/144/58 97/143/58 98/162/58 95/163/58
f 67/150/59 98/162/59 97/143/59 68/132/59
f 92/146/60 93/145/60 94/164/60 91/161/60
f 93/145/61 96/144/61 95/163/61 94/164/61
f 98/162/62 67/150/62 69/149/62 71/152/62 73/151/62 75/153/62 77/154/62 79/156/62 81/155/62 83/157/62 85/158/62 87/160/62 89/159/62 91/161/62 94/164/62 95/163/62
