# Blender 4.4.0
# www.blender.org
mtllib tagStandard52h13-777.mtl
o Cube
v 0.100000 -0.100000 0.010000
v 0.120000 -0.120000 0.010000
v 0.120000 -0.120000 0.000000
v 0.100000 -0.100000 0.000000
v -0.120000 -0.120000 0.010000
v -0.100000 -0.100000 0.010000
v -0.120000 -0.120000 0.000000
v -0.100000 -0.100000 0.000000
v 0.120000 0.120000 0.010000
v 0.100000 0.100000 0.010000
v 0.120000 0.120000 0.000000
v 0.100000 0.100000 0.000000
v -0.120000 0.120000 0.010000
v -0.100000 0.100000 0.010000
v -0.120000 0.120000 0.000000
v -0.100000 0.100000 0.000000
v 0.100000 -0.100000 0.010000
v 0.100000 -0.100000 0.000000
v -0.100000 -0.100000 0.010000
v -0.100000 -0.100000 0.000000
v 0.100000 0.100000 0.010000
v 0.100000 0.100000 0.000000
v -0.100000 0.100000 0.010000
v -0.100000 0.100000 0.000000
vn -0.0000 -0.0000 1.0000
vn -1.0000 -0.0000 -0.0000
vn -0.0000 1.0000 -0.0000
vn -0.0000 -0.0000 -1.0000
vn -0.0000 -1.0000 -0.0000
vn 1.0000 -0.0000 -0.0000
vt 0.229167 0.520833
vt 0.250000 0.500000
vt 0.250000 0.750000
vt -0.000000 0.750000
vt 0.000000 0.500000
vt 0.020833 0.520833
vt 0.020833 0.729167
vt 0.229167 0.729167
vt 0.250000 0.250000
vt 0.000000 0.250000
vt 0.000000 0.000000
vt 0.250000 0.000000
vt 0.250000 0.500000
vt 0.000000 0.500000
vt 0.000000 0.250000
vt 0.250000 0.250000
vt 0.500000 0.500000
vt 0.500000 0.750000
vt 0.250000 0.750000
vt 0.250000 0.500000
vt 0.270833 0.520833
vt 0.270833 0.729167
vt 0.479167 0.729167
vt 0.479167 0.520833
vt 0.500000 0.250000
vt 0.250000 0.250000
vt 0.250000 -0.000000
vt 0.500000 0.000000
vt 0.500000 0.500000
vt 0.250000 0.500000
vt 0.250000 0.250000
vt 0.500000 0.250000
vt 0.500000 0.208333
vt 0.500000 0.000000
vt 0.750000 0.000000
vt 0.750000 0.208333
vt 0.750000 0.208333
vt 0.750000 0.416667
vt 0.500000 0.416667
vt 0.500000 0.208333
vt 0.500000 0.625000
vt 0.500000 0.416667
vt 0.750000 0.416667
vt 0.750000 0.625000
vt 0.250000 0.958333
vt 0.000000 0.958333
vt 0.000000 0.750000
vt 0.958333 0.416667
vt 0.958333 0.625000
vt 0.750000 0.625000
vt 0.750000 0.416667
vt 0.500000 0.958333
vt 0.250000 0.958333
vt 0.250000 0.750000
vt 0.500000 0.750000
vt 0.750000 0.958333
vt 0.500000 0.958333
vt 0.500000 0.750000
vt 0.750000 0.750000
vt 0.958333 0.625000
vt 0.958333 0.833333
vt 0.750000 0.833333
vt 1.000000 0.208333
vt 0.750000 0.208333
vt 0.750000 -0.000000
vt 1.000000 0.000000
vt 1.000000 0.416667
vt 0.750000 0.416667
vt 0.750000 0.208333
vt 1.000000 0.208333
s 0
usemtl Material.005
f 1/1/1 2/2/1 9/3/1 13/4/1 5/5/1 6/6/1 14/7/1 10/8/1
f 1/1/1 6/6/1 5/5/1 2/2/1
f 7/9/2 5/10/2 13/11/2 15/12/2
f 15/13/3 13/14/3 9/15/3 11/16/3
f 11/17/4 3/18/4 7/19/4 15/20/4 16/21/4 8/22/4 4/23/4 12/24/4
f 11/17/4 12/24/4 16/21/4 15/20/4
f 3/25/5 2/26/5 5/27/5 7/28/5
f 11/29/6 9/30/6 2/31/6 3/32/6
f 14/33/6 6/34/6 8/35/6 16/36/6
f 16/37/5 12/38/5 10/39/5 14/40/5
f 6/41/3 1/42/3 4/43/3 8/44/3
f 12/19/2 4/45/2 1/46/2 10/47/2
f 17/48/1 21/49/1 23/50/1 19/51/1
f 20/52/2 19/53/2 23/54/2 24/55/2
f 24/56/3 23/57/3 21/58/3 22/59/3
f 22/60/4 18/61/4 20/62/4 24/50/4
f 18/63/5 17/64/5 19/65/5 20/66/5
f 22/67/6 21/68/6 17/69/6 18/70/6
