<svg width="316" height="269" viewBox="0 0 316 269" fill="none" xmlns="http://www.w3.org/2000/svg">
<rect x="158" width="158" height="269" fill="white"/>
<circle cx="157.5" cy="134.5" r="103" stroke="black"/>
<rect opacity="0.5" width="158" height="269" fill="#1E4D7F"/>
<circle cx="158" cy="31" r="9" fill="#F14A4A"/>
<circle opacity="0.53" cx="130" cy="35" r="9" fill="#F1AE4A"/>
<circle cx="183" cy="238" r="9" fill="#FFC063"/>
<path d="M179.472 223.849C179.941 224.141 180.557 223.997 180.849 223.528L185.603 215.886C185.895 215.417 185.751 214.801 185.282 214.509C184.813 214.217 184.197 214.361 183.905 214.83L179.679 221.623L172.886 217.397C172.417 217.105 171.801 217.249 171.509 217.718C171.217 218.187 171.361 218.803 171.83 219.095L179.472 223.849ZM138.026 47.2269L179.026 223.227L180.974 222.773L139.974 46.7731L138.026 47.2269Z" fill="#FFD22E"/>
</svg>
