# Blender 4.4.0
# www.blender.org
mtllib mip_36h12-42.mtl
o Cube.002
v -0.100000 0.100000 0.000000
v -0.100000 0.100000 0.010000
v 0.100000 0.100000 0.000000
v 0.100000 0.100000 0.010000
v -0.100000 -0.100000 0.000000
v -0.100000 -0.100000 0.010000
v 0.100000 -0.100000 0.000000
v 0.100000 -0.100000 0.010000
v -0.120000 0.120000 0.000000
v -0.100000 0.100000 0.000000
v -0.120000 0.120000 0.010000
v -0.100000 0.100000 0.010000
v 0.120000 0.120000 0.000000
v 0.100000 0.100000 0.000000
v 0.120000 0.120000 0.010000
v 0.100000 0.100000 0.010000
v -0.120000 -0.120000 0.000000
v -0.100000 -0.100000 0.000000
v -0.120000 -0.120000 0.010000
v -0.100000 -0.100000 0.010000
v 0.120000 -0.120000 0.000000
v 0.100000 -0.100000 0.000000
v 0.120000 -0.120000 0.010000
v 0.100000 -0.100000 0.010000
vn -0.0000 1.0000 -0.0000
vn 1.0000 -0.0000 -0.0000
vn -0.0000 -1.0000 -0.0000
vn -1.0000 -0.0000 -0.0000
vn -0.0000 -0.0000 -1.0000
vn -0.0000 -0.0000 1.0000
vt 0.375000 0.000000
vt 0.625000 0.000000
vt 0.625000 0.250000
vt 0.375000 0.250000
vt 0.625000 0.500000
vt 0.375000 0.500000
vt 0.625000 0.750000
vt 0.375000 0.750000
vt 0.625000 1.000000
vt 0.375000 1.000000
vt 0.125000 0.500000
vt 0.125000 0.750000
vt 0.000000 0.000000
vt 1.000000 0.000000
vt 1.000000 1.000000
vt 0.000000 1.000000
vt 0.145833 0.729167
vt 0.354167 0.729167
vt 0.354167 0.520833
vt 0.145833 0.520833
vt 0.645833 0.520833
vt 0.875000 0.500000
vt 0.875000 0.750000
vt 0.645833 0.729167
vt 0.854167 0.729167
vt 0.854167 0.520833
s 1
usemtl Material.010
f 1/1/1 2/2/1 4/3/1 3/4/1
f 3/4/2 4/3/2 8/5/2 7/6/2
f 7/6/3 8/5/3 6/7/3 5/8/3
f 5/8/4 6/7/4 2/9/4 1/10/4
f 3/11/5 7/6/5 5/8/5 1/12/5
usemtl Material.011
f 8/13/6 4/14/6 2/15/6 6/16/6
usemtl Material.012
f 9/1/1 11/2/1 15/3/1 13/4/1
f 13/4/2 15/3/2 23/5/2 21/6/2
f 21/6/3 23/5/3 19/7/3 17/8/3
f 17/8/4 19/7/4 11/9/4 9/10/4
f 13/11/5 21/6/5 17/8/5 9/12/5 10/17/5 18/18/5 22/19/5 14/20/5
f 13/11/5 14/20/5 10/17/5 9/12/5
f 24/21/6 23/5/6 15/22/6 11/23/6 19/7/6 20/24/6 12/25/6 16/26/6
f 24/21/6 20/24/6 19/7/6 23/5/6
f 12/2/3 10/1/3 14/4/3 16/3/3
f 16/3/4 14/4/4 22/6/4 24/5/4
f 20/7/1 24/5/1 22/6/1 18/8/1
f 12/9/2 20/7/2 18/8/2 10/10/2
